<?xml version="1.0" encoding="UTF-8"?>
<svg width="2208px" height="2208px" viewBox="0 0 2208 2208" version="1.1" xmlns="http://www.w3.org/2000/svg" xmlns:xlink="http://www.w3.org/1999/xlink">
    <!-- Generator: Sketch 47.1 (45422) - http://www.bohemiancoding.com/sketch -->
    <title>Artboard</title>
    <desc>Created with Sketch.</desc>
    <defs></defs>
    <g id="Page-1" stroke="none" stroke-width="1" fill="none" fill-rule="evenodd">
        <g id="Artboard" fill-rule="nonzero">
            <g id="logo" transform="translate(1144.500000, 1104.500000) rotate(7.000000) translate(-1144.500000, -1104.500000) translate(152.000000, 337.000000)">
                <g id="_2151980422464">
                    <path d="M1683,713 C1681,732 1680,750 1679,768 C1678,790 1676,815 1674,839 C1672,863 1668,887 1664,910 L1664,912 C1663,920 1661,928 1660,937 C1659,944 1658,952 1657,959 L1657,960 C1655,973 1652,986 1651,998 C1647,1034 1590,1168 1568,1192 C1554,1207 1542,1221 1531,1234 C1472,1300 1433,1344 1327,1417 C1325,1418 1316,1425 1310,1427 C1104,1516 927,1535 815,1535 C734,1535 686,1525 684,1524 L684,1523 C674,1521 630,1508 619,1502 C577,1480 532,1458 489,1434 C463,1420 437,1405 410,1387 C389,1373 312,1296 303,1284 C278,1250 252,1215 231,1175 C212,1136 194,1096 177,1058 L170,1043 C164,1031 163,1020 161,1012 L161,1011 C161,1010 161,1009 161,1008 L157,986 C151,954 145,922 140,890 C132,842 125,795 120,759 C117,739 122,629 125,613 C126,605 128,595 130,585 C140,546 158,511 174,477 L176,473 C187,451 201,424 216,397 C224,384 272,317 284,302 C293,292 316,265 334,244 C345,231 355,220 357,217 C361,212 365,206 369,201 C390,175 411,148 437,123 C446,114 457,108 465,104 C466,103 467,103 468,102 C478,96 488,92 498,88 C509,84 519,79 530,75 C581,54 626,36 693,19 C709,15 735,11 771,6 C807,2 824,0 843,0 C844,0 846,0 848,0 C889,1 929,2 969,2 C976,3 982,3 988,4 C988,4 989,4 991,4 C1064,8 1075,11 1079,12 C1135,29 1177,50 1195,59 C1198,60 1201,61 1202,62 C1218,69 1231,79 1240,87 C1255,101 1272,114 1288,127 C1297,134 1306,142 1316,150 L1322,155 C1334,165 1347,176 1360,188 C1386,212 1419,245 1452,279 C1474,301 1498,325 1519,352 C1523,358 1528,363 1532,368 C1558,401 1585,434 1606,474 C1614,488 1619,501 1624,515 L1625,515 C1626,518 1627,521 1628,525 C1639,551 1650,579 1661,609 C1664,615 1666,622 1668,628 C1670,633 1671,639 1673,644 C1682,666 1685,689 1683,713 Z M1631,655 C1627,643 1623,631 1619,620 C1608,592 1597,563 1586,535 C1580,519 1574,503 1566,489 C1543,447 1512,410 1482,373 C1463,348 1440,325 1418,302 C1388,271 1357,241 1325,211 C1312,198 1298,186 1284,175 C1258,153 1241,130 1212,112 C1139,65 1074,46 1068,46 C1068,46 970,36 962,35 C713,6 570,94 504,120 C496,123 487,127 479,132 C472,136 464,140 458,146 C429,173 406,205 381,236 C371,249 361,262 350,276 C324,309 297,343 271,376 C261,388 251,399 243,412 C229,436 216,462 204,487 C187,520 171,554 161,591 C155,616 148,723 152,748 C158,792 165,836 172,880 C179,919 186,959 193,998 C194,1006 238,1111 260,1154 C284,1203 370,1310 424,1350 C448,1368 474,1384 500,1398 C553,1426 629,1476 756,1492 C970,1519 1254,1422 1307,1394 C1308,1394 1310,1392 1310,1392 C1311,1391 1320,1384 1320,1384 C1320,1384 1383,1334 1417,1298 C1470,1243 1519,1184 1525,1172 C1545,1137 1564,1101 1581,1066 C1593,1042 1603,1018 1606,992 C1608,970 1612,949 1615,928 C1620,895 1626,863 1629,831 C1633,789 1634,747 1638,704 C1639,687 1637,671 1631,655 Z" id="Combined-Shape" fill="#FEFEFE"></path>
                    <path d="M1905,923 C1897,894 1790,516 1779,477 C1779,475 1777,474 1775,474 C1767,474 1747,474 1745,474 C1718,476 1699,476 1672,478 C1670,478 1669,477 1668,475 C1662,425 1656,374 1650,322 C1649,320 1648,319 1646,319 C1634,320 1622,321 1610,322 C1567,324 1523,327 1480,330 C1400,334 1319,338 1239,343 C1232,343 1228,341 1228,334 C1226,319 1225,311 1224,302 C1224,301 1222,299 1220,300 C1182,305 988,337 986,333 C960,269 874,166 874,166 C787,59 638,52 638,52 C635,51 598,52 595,53 L516,73 L433,104 L277,168 C277,168 237,185 246,201 L256,224 L292,276 C318,307 394,374 394,374 C396,376 395,379 392,379 L300,388 C300,388 225,396 192,401 C151,406 111,411 71,416 C55,418 14,425 3,427 C1,428 0,429 0,431 L104,1149 C104,1150 105,1151 106,1152 L936,1491 C1105,1472 1268,1414 1308,1394 L1904,926 C1905,925 1906,924 1905,923 Z" id="Shape" fill="#2D3092"></path>
                    <path d="M1715,739 C1709,772 1670,785 1638,743 C1634,738 1636,730 1642,731 C1677,737 1704,724 1709,723 C1716,721 1719,721 1715,739 Z M1850,917 C1840,881 1830,846 1820,812 C1806,765 1791,719 1776,672 C1763,631 1749,590 1736,548 C1733,539 1729,537 1721,539 C1668,548 1615,557 1562,565 C1554,566 1551,569 1552,578 C1553,681 1554,783 1556,886 C1556,911 1557,935 1558,959 C1558,963 1557,968 1564,967 C1592,963 1613,958 1641,955 C1648,954 1650,951 1651,944 C1655,919 1656,882 1660,857 C1661,856 1662,854 1663,854 C1682,851 1700,850 1721,847 C1722,847 1724,848 1724,849 C1726,852 1729,856 1731,861 C1740,878 1753,906 1761,924 C1765,932 1770,933 1778,932 C1790,930 1812,927 1824,925 C1832,924 1839,922 1847,921 C1849,920 1850,918 1850,917 Z" id="Shape" fill="#FFFFFF"></path>
                    <path d="M1563,967 L1576,595 C1576,589 1581,584 1587,584 L1739,558 L1736,548 L1736,548 C1734,541 1731,538 1725,538 L1725,538 C1724,538 1722,539 1721,539 C1668,548 1615,557 1562,565 L1562,565 C1554,566 1551,569 1551,578 L1551,578 C1553,681 1554,783 1556,886 L1556,886 C1556,911 1557,935 1558,959 L1558,959 C1558,963 1557,967 1563,967 Z" id="Shape" fill="#CECCE5"></path>
                    <path d="M1729,857 L1743,854 L1786,931 C1783,931 1780,931 1778,932 L1778,932 C1770,933 1765,932 1761,924 L1761,924 C1753,906 1740,878 1731,861 L1731,861 C1730,859 1730,858 1729,857 Z" id="Shape" fill="#CECCE5"></path>
                    <path d="M1721,754 C1715,786 1676,800 1644,758 C1642,755 1642,752 1643,749 C1673,784 1709,770 1715,739 L1715,739 L1716,737 C1722,736 1725,735 1721,754 Z" id="Shape" fill="#CECCE5"></path>
                    <path d="M1219,390 C1280,387 1368,381 1428,377 C1477,375 1564,368 1584,366 C1591,366 1591,371 1591,375 C1596,403 1600,435 1604,464 C1606,477 1607,490 1609,503 C1611,517 1598,516 1597,516 C1581,516 1514,520 1499,522 C1496,523 1495,525 1495,527 C1496,563 1498,599 1499,634 C1502,683 1504,732 1506,782 C1509,829 1511,877 1513,925 C1513,939 1513,953 1514,967 C1514,973 1512,976 1504,976 C1486,977 1478,979 1460,980 C1445,981 1371,989 1370,989 C1354,990 1354,978 1353,967 C1348,905 1342,842 1336,780 C1332,727 1329,677 1325,624 C1323,595 1320,563 1318,535 C1318,532 1316,530 1313,530 C1297,532 1239,536 1238,536 C1236,536 1234,535 1232,533 C1229,531 1228,527 1227,524 L1213,425 L1211,403 C1210,400 1211,396 1214,393 C1215,392 1217,390 1219,390 Z" id="Shape" fill="#FFFFFF"></path>
                    <path d="M1336,540 L1367,989 C1354,989 1354,977 1353,967 L1353,967 C1348,905 1342,842 1336,780 L1336,780 C1332,727 1329,677 1325,624 L1325,624 C1323,598 1320,570 1319,544 L1336,540 Z" id="Shape" fill="#CECCE5"></path>
                    <path d="M1252,535 L1233,408 C1233,406 1235,403 1237,403 L1592,376 L1591,375 L1591,375 C1591,371 1591,366 1585,366 L1585,366 C1585,366 1585,366 1584,366 L1584,366 C1564,368 1477,375 1428,377 L1428,377 C1368,381 1280,387 1219,390 L1219,390 C1217,390 1215,392 1214,393 L1214,393 C1211,396 1210,400 1211,403 L1211,403 L1213,425 L1227,524 C1228,527 1229,531 1232,533 L1232,533 C1234,535 1236,536 1238,536 L1238,536 L1252,535 Z" id="Shape" fill="#CECCE5"></path>
                    <path d="M849,1060 C832,1063 832,1063 830,1045 C819,962 810,880 800,797 C789,711 778,625 767,539 C766,530 769,526 778,525 C812,521 846,516 880,512 C903,509 919,519 934,535 C960,564 988,591 1015,619 C1028,632 1042,647 1055,660 C1056,662 1061,668 1066,672 C1068,674 1072,672 1071,670 C1063,605 1053,538 1045,473 C1039,428 1039,439 1033,394 C1033,389 1034,386 1039,385 C1091,375 1161,368 1161,368 C1172,367 1174,369 1175,378 C1179,406 1188,472 1193,511 C1198,555 1231,834 1245,955 C1246,961 1247,973 1248,997 C1249,1008 1244,1009 1240,1010 C1233,1012 1189,1019 1170,1022 C1164,1023 1161,1021 1157,1017 C1082,933 952,781 952,781 C949,777 945,778 945,778 L941,779 C939,779 938,781 938,782 C939,790 944,838 947,869 C951,906 964,1006 964,1006 C964,1006 966,1028 966,1039 C966,1045 962,1047 956,1047 C923,1051 888,1055 855,1060 C853,1060 851,1060 849,1060 Z" id="Shape" fill="#FFFFFF"></path>
                    <path d="M840,1061 L778,547 C778,544 780,542 782,541 L920,522 C908,514 896,510 880,512 L880,512 C846,516 812,521 778,525 L778,525 C769,526 766,530 767,539 L767,539 C778,625 789,711 800,797 L800,797 C810,880 819,962 830,1045 L830,1045 C832,1059 832,1062 840,1061 Z" id="Shape" fill="#CECCE5"></path>
                    <path d="M1064,670 C1068,675 1084,684 1084,684 L1053,396 L1176,387 L1175,378 L1175,378 C1174,370 1173,368 1166,368 L1166,368 C1164,368 1163,368 1161,368 L1161,368 C1161,368 1091,375 1039,385 L1039,385 C1034,386 1033,389 1033,394 L1033,394 C1039,439 1039,428 1045,473 L1045,473 C1053,538 1063,605 1071,670 L1071,670 C1072,672 1068,674 1066,672 L1066,672 C1065,672 1065,671 1064,670 Z" id="Shape" fill="#CECCE5"></path>
                    <path d="M537,837 L549,742 C550,738 553,735 557,734 L568,733 C571,733 574,735 575,738 L606,827 L537,837 Z M793,1044 C778,1001 763,959 749,917 C731,865 713,813 696,762 C681,720 667,677 653,635 C637,592 621,550 606,507 C603,499 599,498 593,499 C556,502 520,505 484,508 C469,510 468,510 467,525 C464,552 461,579 458,607 C452,665 446,724 440,782 C434,840 429,897 424,955 C419,1000 415,1045 410,1091 C410,1093 411,1094 412,1094 C419,1097 425,1102 432,1101 C457,1099 481,1095 506,1092 C512,1091 515,1089 516,1083 C518,1069 535,980 540,941 C541,939 542,938 543,938 C568,934 594,930 620,925 C622,925 623,926 624,927 C625,929 626,933 626,933 C626,933 672,1053 674,1061 C676,1067 682,1077 692,1076 C709,1073 768,1065 777,1064 C794,1063 797,1057 793,1044 Z" id="Shape" fill="#FFFFFF"></path>
                    <path d="M470,512 L430,1101 C424,1101 418,1097 412,1094 L412,1094 C411,1094 410,1093 410,1091 L410,1091 C415,1045 419,1000 424,955 L424,955 C429,897 434,840 440,782 L440,782 C446,724 452,665 458,607 L458,607 C461,579 464,552 467,525 L467,525 C468,517 468,514 470,512 Z" id="Shape" fill="#CECCE5"></path>
                    <path d="M652,929 L697,1075 L692,1076 L692,1076 C682,1077 676,1067 674,1061 L674,1061 C672,1053 635,956 627,936 L652,929 Z" id="Shape" fill="#CECCE5"></path>
                    <polygon id="Shape" fill="#CECCE5" points="547 850 537 837 537 837 606 827 587 771 606 827 610 835"></polygon>
                    <path d="M388,821 C359,824 330,827 302,830 C289,832 272,835 260,836 C258,837 256,838 257,840 C257,843 257,848 257,848 L276,1092 C276,1092 277,1102 277,1107 C278,1109 276,1110 275,1111 C259,1113 248,1115 232,1117 C210,1120 189,1122 168,1124 C160,1124 153,1123 145,1122 C143,1122 141,1117 141,1114 C136,1081 132,1048 127,1016 C119,953 110,890 102,827 C93,761 84,695 75,629 C70,589 64,549 58,509 C57,501 56,492 55,484 C53,472 63,470 70,469 C108,462 309,437 371,427 C381,426 383,431 384,438 C386,455 388,467 390,485 C393,507 398,535 401,557 C403,564 401,569 395,570 C377,574 340,580 340,580 C340,580 237,598 231,598 C229,599 228,600 228,602 C232,626 239,701 241,714 C242,723 247,725 255,724 C284,720 303,717 332,714 C347,712 362,710 377,708 C377,708 377,708 378,708 C381,708 384,710 384,713 C386,730 399,805 399,807 C401,818 399,820 388,821 Z" id="Shape" fill="#FFFFFF"></path>
                    <path d="M168,1124 L168,1124 L60,472 C57,474 54,478 55,484 L55,484 C56,492 57,501 58,509 L58,509 C64,549 70,589 75,629 L75,629 C85,695 93,761 102,827 L102,827 C110,890 119,953 127,1016 L127,1016 C132,1048 136,1081 141,1114 L141,1114 C141,1117 143,1122 145,1122 L145,1122 C153,1123 160,1124 168,1124 Z" id="Shape" fill="#CECCE5"></path>
                    <path d="M319,242 C310,233 302,223 293,213 C290,209 290,206 295,202 C300,197 358,176 381,167 C489,127 529,93 608,93 C718,94 752,128 762,133 C767,136 779,145 779,145 C882,209 927,342 938,372 C963,438 1024,550 1026,554 C1029,562 1027,565 1019,568 C1014,570 949,464 949,464 C920,417 872,409 848,412 C842,413 835,414 835,414 C832,415 807,419 794,421 C639,445 592,429 558,418 C508,402 459,370 418,337 C365,294 327,250 319,242 Z" id="Shape" fill="#77B94C"></path>
                    <path d="M332,202 L317,211 C317,211 418,337 580,425 L580,425 C572,423 565,420 558,418 L558,418 C508,402 459,370 418,337 L418,337 C365,294 327,250 319,242 L319,242 C310,233 302,223 293,213 L293,213 C290,209 290,206 295,202 L295,202 C300,197 358,176 381,167 L381,167 C471,134 514,104 572,96 C473,132 332,202 332,202 Z" id="Shape" fill="#61943B"></path>
                    <path d="M813,417 L852,405 C859,403 867,401 874,401 C882,401 901,405 904,408 C954,442 981,502 993,533 C973,503 949,464 949,464 L949,464 C920,417 872,409 848,412 L848,412 C842,413 835,414 835,414 L835,414 C833,415 824,416 814,418 L813,417 Z" id="Shape" fill="#61943B"></path>
                    <path d="M419,247 C417,247 416,250 418,251 C465,278 512,306 556,336 C580,352 603,369 631,378 C671,390 713,381 754,375 C795,368 843,359 830,356 C813,352 801,347 784,343 C731,330 679,314 631,289 C586,266 540,235 490,238 C466,239 443,248 419,247 Z" id="Shape" fill="#61943B"></path>
                </g>
                <path d="M1952,877 C1954,877 1956,877 1957,876 C1958,875 1958,874 1958,873 C1958,869 1956,868 1952,868 L1946,868 L1946,877 L1952,877 Z M1951,913 C1946,913 1942,912 1938,910 C1934,908 1930,906 1927,903 C1924,900 1922,896 1920,892 C1918,888 1918,883 1918,878 C1918,873 1918,869 1920,865 C1922,861 1924,857 1927,854 C1930,851 1934,848 1938,847 C1942,845 1947,844 1952,844 C1956,844 1961,845 1965,847 C1969,848 1973,851 1976,854 C1979,857 1981,860 1983,865 C1985,869 1985,873 1985,878 C1985,883 1985,888 1983,892 C1981,896 1979,900 1976,903 C1973,906 1969,908 1965,910 C1961,912 1956,913 1951,913 Z M1952,907 C1956,907 1959,906 1963,905 C1966,903 1969,901 1971,899 C1974,896 1976,893 1977,890 C1978,886 1979,883 1979,878 C1979,874 1978,871 1977,867 C1975,864 1974,861 1971,858 C1969,856 1966,854 1962,852 C1959,851 1955,850 1951,850 C1947,850 1944,851 1940,852 C1937,854 1934,856 1932,858 C1929,861 1927,864 1926,867 C1925,870 1924,874 1924,878 C1924,882 1925,886 1926,890 C1927,893 1929,896 1932,899 C1934,901 1937,903 1940,904 C1944,906 1948,907 1952,907 Z M1967,893 C1968,893 1967,893 1967,894 C1967,894 1967,895 1966,895 C1966,895 1965,896 1964,896 C1964,896 1963,897 1962,897 C1961,897 1960,896 1959,896 C1958,895 1957,894 1956,893 L1950,884 L1947,884 L1947,892 C1947,895 1945,896 1942,896 L1941,896 C1940,896 1939,896 1938,895 C1937,894 1937,893 1937,891 L1937,866 C1937,862 1939,860 1942,860 L1953,860 C1958,860 1961,861 1964,863 C1966,865 1968,868 1968,872 C1968,875 1967,877 1966,879 C1964,880 1962,882 1959,882 L1967,893 Z" id="Shape" fill="#2D3092"></path>
            </g>
        </g>
    </g>
</svg>