<?xml version="1.0" encoding="UTF-8"?>
<svg width="307px" height="37px" viewBox="0 0 307 37" version="1.1" xmlns="http://www.w3.org/2000/svg" xmlns:xlink="http://www.w3.org/1999/xlink">
    <!-- Generator: Sketch 47.1 (45422) - http://www.bohemiancoding.com/sketch -->
    <title>Group</title>
    <desc>Created with Sketch.</desc>
    <defs></defs>
    <g id="Page-1" stroke="none" stroke-width="1" fill="none" fill-rule="evenodd">
        <g id="Group" fill="#2D3092">
            <path d="M30.653762,31.18 L30.653762,32 L30.653762,32 C30.653762,34.209139 28.862901,36 26.653762,36 L3.87,36 L3.87,36 C1.73265802,36 2.61748902e-16,34.267342 0,32.13 L0,32.13 L0,32.13 C7.98825286e-16,29.64628 0.95835922,27.2583415 2.67539765,25.4637262 L16.5330271,10.98 L4.76487314,10.98 L4.76487314,10.98 C2.55573414,10.98 0.764873141,9.189139 0.764873141,6.98 L0.764873141,6.16 L0.764873141,6.16 C0.764873141,3.950861 2.55573414,2.16 4.76487314,2.16 L26.1953981,2.16 L26.1953981,2.16 C28.3327401,2.16 30.0653981,3.89265802 30.0653981,6.03 L30.0653981,6.03 L30.0653981,6.03 C30.0653981,8.51372003 29.1070389,10.9016585 27.3900004,12.6962738 L13.532371,27.18 L26.653762,27.18 L26.653762,27.18 C28.862901,27.18 30.653762,28.970861 30.653762,31.18 Z M65.0956912,19.62 C65.0956912,19.9515681 65.0761591,20.3425145 65.037095,20.7928394 L65.0370995,20.7928398 C64.94743,21.8265355 64.0821554,22.62 63.0445778,22.62 L40.9463953,22.62 C41.5358547,24.3800088 42.5673933,25.7399952 44.0410419,26.7 C45.5146905,27.6600048 47.3383033,28.14 49.511935,28.14 C51.1697897,28.14 52.6157857,27.8900025 53.8499664,27.39 C55.0841471,26.8899975 57.4564618,26.040006 58.9669516,24.84 L60.7556123,27.2515331 L60.755575,27.2515608 C62.5104176,29.6174992 62.0150265,32.9580522 59.6490882,34.7128948 C59.3096878,34.9646318 58.9415739,35.1751429 58.55249,35.34 C58.55249,35.34 58.55249,35.34 58.55249,35.34 C56.2867553,36.3000048 52.6065971,36.78 49.511935,36.78 C45.7172898,36.78 42.4384709,36.0000078 39.6753797,34.44 C36.9122886,32.8799922 34.8123708,30.7600134 33.3755634,28.08 C31.938756,25.3999866 31.2203631,22.4200164 31.2203631,19.14 C31.2203631,15.939984 31.9019153,12.9900135 33.2650403,10.29 C34.6281653,7.5899865 36.5991407,5.4300081 39.1780258,3.81 C41.7569109,2.1899919 44.7778452,1.38 48.2409194,1.38 C51.7039937,1.38 54.7065077,2.1899919 57.2485515,3.81 C59.7905954,5.4300081 61.7339404,7.6299861 63.0786447,10.41 C64.4233491,13.1900139 65.0956912,16.2599832 65.0956912,19.62 Z M48.2462817,10.2 C46.2850587,10.2 44.6278502,10.6699953 43.2746063,11.61 C42.6187813,12.0655562 41.9370485,12.8927893 41.2294078,14.0916993 L41.2294072,14.0916989 C40.9486806,14.5673158 41.1066705,15.1804534 41.5822874,15.4611799 C41.7362638,15.5520625 41.9117908,15.6 42.0905878,15.6 L54.4296312,15.6 L54.4296312,15.5999884 C54.9819096,15.5999884 55.4296197,15.1522784 55.4296197,14.6 C55.4296197,14.4258641 55.384147,14.2547467 55.2977019,14.1035827 C54.6084193,12.898254 53.9347831,12.0670598 53.2767935,11.61 C51.9235497,10.6699953 50.2467292,10.2 48.2462817,10.2 Z M92.493161,9.44563868 C92.2860833,12.0268499 91.6216963,13.8783037 90.5,15 C90.5,15 88,12 86,12 C84,12 83.7836915,12.179994 82.1362642,13.38 C80.4888369,14.580006 79.6651356,17.6999848 79.6651356,20.74 L79.6651356,32 L79.6651356,32 C79.6651356,34.209139 77.8742746,36 75.6651356,36 L73.1922572,36 L73.1922572,36 C70.9831182,36 69.1922572,34.209139 69.1922572,32 L69.1922572,4.16 L69.1922572,4.16 C69.1922572,3.0554305 70.0876877,2.16 71.1922572,2.16 L74.1345144,2.16 L74.1345144,2.16 C76.8640477,2.16 79.0767717,4.37272393 79.0767717,7.10225722 L79.0767717,7.72 C80.0181587,5.9999914 81.4008002,3.7300041 83.2247375,2.91 C83.2247375,2.91 83.2247375,2.91 83.2247375,2.91 L83.2247375,2.91 C86.5433071,1.41804054 90.4430114,2.89880058 91.9349708,6.21737013 C92.3899086,7.22928945 92.5819212,8.33971341 92.4931981,9.44564166 Z M112.73119,36.78 C109.004866,36.78 105.719867,35.9900079 102.876094,34.41 C100.03232,32.8299921 97.8357835,30.7000134 96.2864173,28.02 C94.7370512,25.3399866 93.9623797,22.3600164 93.9623797,19.08 C93.9623797,15.7999836 94.7370512,12.8200134 96.2864173,10.14 C97.8357835,7.4599866 100.03232,5.3300079 102.876094,3.75 C105.719867,2.1699921 109.004866,1.38 112.73119,1.38 C116.457514,1.38 119.742513,2.1699921 122.586286,3.75 C125.430059,5.3300079 127.626596,7.4599866 129.175962,10.14 C130.725329,12.8200134 131.5,15.7999836 131.5,19.08 C131.5,22.3600164 130.725329,25.3399866 129.175962,28.02 C127.626596,30.7000134 125.430059,32.8299921 122.586286,34.41 C119.742513,35.9900079 116.457514,36.78 112.73119,36.78 Z M112.73119,27.18 C115.045433,27.18 116.987015,26.4300075 118.555993,24.93 C120.124971,23.4299925 120.909449,21.480012 120.909449,19.08 C120.909449,16.679988 120.124971,14.7300075 118.555993,13.23 C116.987015,11.7299925 115.045433,10.98 112.73119,10.98 C110.416947,10.98 108.475365,11.7299925 106.906387,13.23 C105.337408,14.7300075 104.552931,16.679988 104.552931,19.08 C104.552931,21.480012 105.337408,23.4299925 106.906387,24.93 C108.475365,26.4300075 110.416947,27.18 112.73119,27.18 Z" id="zero"></path>
            <path d="M155.568853,36.48 C152.646284,36.48 149.09967,36.1120046 146.527201,35.184 C145.223998,34.7138763 143.829973,33.8526352 142.345129,32.6002769 L142.345136,32.6002682 C141.520371,31.904639 141.396053,30.6801964 142.064174,29.8329942 L143.787307,27.648 C145.431251,29.1200074 147.26544,30.2399962 149.289928,31.008 C151.314416,31.7760038 153.422591,32.16 155.614518,32.16 C157.228019,32.16 158.681671,31.9120025 159.975516,31.416 C161.269362,30.9199975 162.289201,30.2320044 163.035065,29.352 C163.780929,28.4719956 164.153855,27.4560058 164.153855,26.304 C164.153855,24.9599933 163.636325,23.8480044 162.601248,22.968 C161.566172,22.0879956 159.952695,21.4240022 157.760768,20.976 L150.819702,19.584 C147.897134,18.975997 145.682408,17.9360074 144.175458,16.464 C142.668509,14.9919926 141.915045,13.1200114 141.915045,10.848 C141.915045,8.83198992 142.493462,7.07200752 143.650312,5.568 C144.807162,4.06399248 146.397807,2.90400408 148.422295,2.088 C150.446782,1.27199592 152.737616,0.864 155.294863,0.864 C157.639007,0.864 159.914619,1.23199632 162.121767,1.968 C163.260296,2.34765796 164.688922,3.14241149 166.407647,4.3522606 L166.407645,4.35226231 C167.299645,4.98016105 167.523977,6.2070218 166.911888,7.1099433 L165.291673,9.5 C163.188556,7.63066875 161.553498,6.48800208 160.3865,6.072 C158.636004,5.44799688 156.893144,5.136 155.157869,5.136 C153.544367,5.136 152.083105,5.36799768 150.774037,5.832 C149.46497,6.29600232 148.429909,6.93599592 147.668824,7.752 C146.907738,8.56800408 146.527201,9.48799488 146.527201,10.512 C146.527201,11.6320056 147.006678,12.5679962 147.965646,13.32 C148.924613,14.0720038 150.500037,14.6719978 152.691964,15.12 L159.35904,16.464 C162.494713,17.1040032 164.846432,18.2559917 166.414268,19.92 C167.982105,21.5840083 168.766011,23.615988 168.766011,26.016 C168.766011,28.0960104 168.210427,29.9279921 167.099242,31.512 C165.988057,33.0960079 164.435466,34.3199957 162.441421,35.184 C160.447377,36.0480043 158.156544,36.48 155.568853,36.48 Z M187.534288,36.624 C184.733493,36.624 182.275223,36.0880054 180.159405,35.016 C178.043587,33.9439946 176.399667,32.40801 175.227595,30.408 C174.055523,28.40799 173.469496,26.0800133 173.469496,23.424 L173.469496,2.44 L173.469496,2.44 C173.469496,1.88771525 173.917212,1.44 174.469496,1.44 L177.035987,1.44 L177.035987,1.44 C177.588272,1.44 178.035987,1.88771525 178.035987,2.44 L178.035987,22.896 C178.035987,25.8080146 178.896001,28.0959917 180.616054,29.76 C182.336108,31.4240083 184.642163,32.256 187.534288,32.256 C190.456857,32.256 192.770522,31.4240083 194.475354,29.76 C196.180186,28.0959917 197.032589,25.8080146 197.032589,22.896 L197.032589,2.44 L197.032589,2.44 C197.032589,1.88771525 197.480304,1.44 198.032589,1.44 L200.599079,1.44 L200.599079,1.44 C201.151364,1.44 201.599079,1.88771525 201.599079,2.44 L201.599079,23.424 C201.599079,26.1120134 201.020663,28.4479901 199.863813,30.432 C198.706963,32.4160099 197.063043,33.9439946 194.932003,35.016 C192.800963,36.0880054 190.335083,36.624 187.534288,36.624 Z M237.222335,36 L235.961922,36 L235.961922,36 C234.737304,36 233.744554,35.0072505 233.744554,33.7826318 C233.744554,33.7684218 233.744691,33.7542122 233.744964,33.7400048 L233.789034,31.448 C232.39118,34.1493333 229.393786,35.8746667 224.796852,36.624 C221.272678,37.1984658 218.046071,35.8560077 215.230054,34.32 C212.414037,32.7839923 210.214533,30.6640135 208.631475,27.96 C207.048417,25.2559865 206.2569,22.1920171 206.2569,18.768 C206.2569,15.3439829 207.040806,12.2640137 208.608643,9.528 C210.176479,6.79198632 212.33793,4.65600768 215.093059,3.12 C217.848189,1.58399232 220.945761,0.816 224.385868,0.816 C227.064889,0.816 229.500327,1.22399592 231.692253,2.04 C232.756065,2.43603262 234.005417,3.13309264 235.44031,4.13118006 L235.440297,4.13119994 C236.347062,4.76193046 236.570832,6.00831706 235.940102,6.91508233 C235.92193,6.941207 235.903137,6.96689423 235.883739,6.99212208 L235.031457,8.10056341 L235.031455,8.10056151 C234.701897,8.52916994 234.091352,8.6182229 233.653097,8.30160601 C232.265578,7.29919297 231.086817,6.60399097 230.116814,6.216 C228.396761,5.52799656 226.486464,5.184 224.385868,5.184 C221.889507,5.184 219.621506,5.75999424 217.581797,6.912 C215.542088,8.06400576 213.936221,9.67198968 212.764149,11.736 C211.592077,13.8000103 211.00605,16.127987 211.00605,18.72 C211.00605,21.312013 211.599688,23.6399897 212.786982,25.704 C213.974275,27.7680103 215.625806,29.3759942 217.741624,30.528 C219.857442,31.6800058 222.254826,32.256 224.933847,32.256 C226.821339,32.256 229.79716,30.752 230.934977,30 C231.657687,29.5223503 232.555418,28.4407447 233.62817,26.7551832 L233.62816,26.7551771 C233.733127,26.5902477 233.787448,26.3981677 233.784404,26.2026927 L233.716841,21.8644281 L233.716841,21.8644281 C233.708335,21.3182813 233.263175,20.88 232.716962,20.88 L224.47257,20.88 L224.47257,20.88 C223.920285,20.88 223.47257,20.4322847 223.47257,19.88 L223.47257,17.656 L223.47257,17.656 C223.47257,17.1037153 223.920285,16.656 224.47257,16.656 L236.222335,16.656 L236.222335,16.656 C237.326905,16.656 238.222335,17.5514305 238.222335,18.656 L238.222335,35 L238.222335,35 C238.222335,35.5522847 237.77462,36 237.222335,36 Z M265.209668,26.784 L250.141503,26.784 L250.141503,26.784 C249.728327,26.784 249.357693,27.0381065 249.208744,27.4235007 L246.141198,35.3604993 L246.141198,35.3604993 C245.992248,35.7458935 245.621615,36 245.208439,36 L242.620605,36 L242.620605,36 C242.06832,36 241.620605,35.5522847 241.620605,35 C241.620605,34.8730592 241.644774,34.7472792 241.691821,34.6293786 L254.684544,2.06937857 L254.684544,2.06937857 C254.836205,1.68931393 255.204122,1.44 255.613328,1.44 L259.874005,1.44 L259.874005,1.44 C260.283628,1.44 260.65183,1.6898141 260.803211,2.07043794 L273.752912,34.6304379 L273.752912,34.6304379 C273.957016,35.1436243 273.706455,35.7251026 273.193268,35.9292061 C273.075671,35.9759768 272.950264,36 272.823706,36 L270.142733,36 L270.142733,36 C269.729556,36 269.358923,35.7458935 269.209973,35.3604993 L266.142428,27.4235007 L266.142428,27.4235007 C265.993478,27.0381065 265.622845,26.784 265.209668,26.784 Z M263.816986,21.2955683 L258.654036,7.93401913 L258.654036,7.93401913 C258.454975,7.41885586 257.875982,7.16260428 257.360819,7.36166521 C257.097896,7.46325943 256.890059,7.67109657 256.788465,7.93401913 L251.625515,21.2955683 L251.625515,21.2955683 C251.426454,21.8107316 251.682705,22.3897247 252.197869,22.5887856 C252.312843,22.6332123 252.435041,22.656 252.5583,22.656 L262.884201,22.656 L262.884201,22.656 C263.436486,22.656 263.884201,22.2082847 263.884201,21.656 C263.884201,21.5327404 263.861413,21.410543 263.816986,21.2955683 Z M292.474133,21.36 L284.019609,21.36 L284.019609,21.36 C283.467324,21.36 283.019609,21.8077153 283.019609,22.36 L283.019609,35 L283.019609,35 C283.019609,35.5522847 282.571894,36 282.019609,36 L279.498783,36 L279.498783,36 C278.946499,36 278.498783,35.5522847 278.498783,35 L278.498783,2.44 L278.498783,2.44 C278.498783,1.88771525 278.946499,1.44 279.498783,1.44 L295.714454,1.44 C297.754163,1.44 299.542687,1.8799956 301.08008,2.76 C302.617473,3.6400044 303.797138,4.83199248 304.61911,6.336 C305.441083,7.84000752 305.852063,9.53599056 305.852063,11.424 C305.852063,13.8560122 305.151875,15.9599911 303.751477,17.736 C302.35108,19.5120089 300.463616,20.6399976 298.089029,21.12 L306.844066,34.4510573 L306.844066,34.4510573 C307.147239,34.9126901 307.018782,35.5326874 306.557149,35.83586 C306.394095,35.9429444 306.20328,36 306.008206,36 L302.973286,36 L302.973286,36 C302.632946,36 302.315971,35.8269029 302.131991,35.5405763 L293.315428,21.8194237 L293.315428,21.8194237 C293.131448,21.5330971 292.814473,21.36 292.474133,21.36 Z M284.019609,17.136 L295.02948,17.136 C296.947416,17.136 298.461953,16.6080053 299.573138,15.552 C300.684323,14.4959947 301.239907,13.1200085 301.239907,11.424 C301.239907,9.69599136 300.691934,8.3120052 299.595971,7.272 C298.500007,6.2319948 296.977859,5.712 295.02948,5.712 L284.019609,5.712 L284.019609,5.712 C283.467324,5.712 283.019609,6.15971525 283.019609,6.712 L283.019609,16.136 L283.019609,16.136 C283.019609,16.6882847 283.467324,17.136 284.019609,17.136 Z" id="SUGAR"></path>
        </g>
    </g>
</svg>